<?xml version="1.0" encoding="UTF-8" standalone="no"?>
<!DOCTYPE svg PUBLIC "-//W3C//DTD SVG 1.0//EN" "http://www.w3.org/TR/2001/PR-SVG-20010719/DTD/svg10.dtd">
<svg width="12cm" height="10cm" viewBox="50 118 236 199" xmlns="http://www.w3.org/2000/svg" xmlns:xlink="http://www.w3.org/1999/xlink">
  <g>
    <rect style="fill: #ffffff" x="80.4011" y="120.415" width="118.012" height="116.715"/>
    <rect style="fill: none; fill-opacity:0; stroke-width: 2; stroke: #000000" x="80.4011" y="120.415" width="118.012" height="116.715"/>
  </g>
  <g>
    <rect style="fill: #ffffff" x="228.647" y="128.051" width="56.339" height="49.7109"/>
    <ellipse style="fill: #ffffff" cx="256.816" cy="177.762" rx="28.1695" ry="8.28514"/>
    <ellipse style="fill: #ffffff" cx="256.816" cy="128.051" rx="28.1695" ry="8.28514"/>
    <ellipse style="fill: none; fill-opacity:0; stroke-width: 2; stroke: #000000" cx="256.816" cy="128.051" rx="28.1695" ry="8.28514"/>
    <path style="fill: none; fill-opacity:0; stroke-width: 2; stroke: #000000" d="M 284.986 128.051 L 284.986,177.762 C 284.986,182.338 272.374,186.047 256.816,186.047 C 241.259,186.047 228.647,182.338 228.647,177.762 L 228.647,128.051"/>
    <text font-size="12.7998" style="fill: #000000;text-anchor:middle;font-family:sans-serif;font-style:normal;font-weight:normal" x="256.816" y="198.047">
      <tspan x="256.816" y="198.047"></tspan>
    </text>
  </g>
  <g>
    <rect style="fill: #d8e5e5" x="80.4011" y="130.141" width="35.0146" height="77.1619"/>
    <rect style="fill: none; fill-opacity:0; stroke-width: 2; stroke: #ff0000" x="80.4011" y="130.141" width="35.0146" height="77.1619"/>
  </g>
  <g>
    <rect style="fill: #d8e5e5" x="156.164" y="137.82" width="35.0146" height="31.7725"/>
    <rect style="fill: none; fill-opacity:0; stroke-width: 2; stroke: #ff0000" x="156.164" y="137.82" width="35.0146" height="31.7725"/>
  </g>
  <g>
    <rect style="fill: #d8e5e5" x="144.881" y="192.028" width="35.0146" height="31.7725"/>
    <rect style="fill: none; fill-opacity:0; stroke-width: 2; stroke: #ff0000" x="144.881" y="192.028" width="35.0146" height="31.7725"/>
  </g>
  <g>
    <rect style="fill: #ffffff" x="80.2988" y="249.996" width="118.012" height="66.241"/>
    <rect style="fill: none; fill-opacity:0; stroke-width: 2; stroke: #000000" x="80.2988" y="249.996" width="118.012" height="66.241"/>
  </g>
  <g>
    <rect style="fill: #d8e5e5" x="144.39" y="265.456" width="35.0146" height="31.7725"/>
    <rect style="fill: none; fill-opacity:0; stroke-width: 2; stroke: #ff0000" x="144.39" y="265.456" width="35.0146" height="31.7725"/>
  </g>
  <g>
    <polygon style="fill: #ffffff" points="191.281,149.705 209.761,149.705 209.761,145.055 228.241,154.356 209.761,163.657 209.761,159.006 191.281,159.006 "/>
    <polygon style="fill: none; fill-opacity:0; stroke-width: 2; stroke: #000000" points="191.281,149.705 209.761,149.705 209.761,145.055 228.241,154.356 209.761,163.657 209.761,159.006 191.281,159.006 "/>
    <polygon style="fill: none; fill-opacity:0; stroke-width: 2; stroke: #000000" points="191.281,149.705 209.761,149.705 209.761,145.055 228.241,154.356 209.761,163.657 209.761,159.006 191.281,159.006 "/>
  </g>
  <g>
    <polygon style="fill: #ffffff" points="116.713,150.226 136.114,150.226 136.114,145.575 155.515,154.876 136.114,164.177 136.114,159.527 116.713,159.527 "/>
    <polygon style="fill: none; fill-opacity:0; stroke-width: 2; stroke: #000000" points="116.713,150.226 136.114,150.226 136.114,145.575 155.515,154.876 136.114,164.177 136.114,159.527 116.713,159.527 "/>
    <polygon style="fill: none; fill-opacity:0; stroke-width: 2; stroke: #000000" points="116.713,150.226 136.114,150.226 136.114,145.575 155.515,154.876 136.114,164.177 136.114,159.527 116.713,159.527 "/>
  </g>
  <g>
    <polygon style="fill: #ffffff" points="115.313,195.581 129.306,195.581 129.306,190.93 143.298,200.231 129.306,209.532 129.306,204.882 115.313,204.882 "/>
    <polygon style="fill: none; fill-opacity:0; stroke-width: 2; stroke: #000000" points="115.313,195.581 129.306,195.581 129.306,190.93 143.298,200.231 129.306,209.532 129.306,204.882 115.313,204.882 "/>
    <polygon style="fill: none; fill-opacity:0; stroke-width: 2; stroke: #000000" points="115.313,195.581 129.306,195.581 129.306,190.93 143.298,200.231 129.306,209.532 129.306,204.882 115.313,204.882 "/>
  </g>
  <g>
    <polygon style="fill: #ffffff" points="52.4168,164.085 66.4089,164.085 66.4089,159.435 80.4011,168.736 66.4089,178.037 66.4089,173.386 52.4168,173.386 "/>
    <polygon style="fill: none; fill-opacity:0; stroke-width: 2; stroke: #000000" points="52.4168,164.085 66.4089,164.085 66.4089,159.435 80.4011,168.736 66.4089,178.037 66.4089,173.386 52.4168,173.386 "/>
    <polygon style="fill: none; fill-opacity:0; stroke-width: 2; stroke: #000000" points="52.4168,164.085 66.4089,164.085 66.4089,159.435 80.4011,168.736 66.4089,178.037 66.4089,173.386 52.4168,173.386 "/>
  </g>
  <g>
    <polygon style="fill: #ffffff" points="51.7683,277.559 65.7605,277.559 65.7605,272.908 79.7527,282.209 65.7605,291.51 65.7605,286.86 51.7683,286.86 "/>
    <polygon style="fill: none; fill-opacity:0; stroke-width: 2; stroke: #000000" points="51.7683,277.559 65.7605,277.559 65.7605,272.908 79.7527,282.209 65.7605,291.51 65.7605,286.86 51.7683,286.86 "/>
    <polygon style="fill: none; fill-opacity:0; stroke-width: 2; stroke: #000000" points="51.7683,277.559 65.7605,277.559 65.7605,272.908 79.7527,282.209 65.7605,291.51 65.7605,286.86 51.7683,286.86 "/>
  </g>
  <g>
    <rect style="fill: #d8e5e5" x="80.2988" y="266.207" width="35.0146" height="31.7725"/>
    <rect style="fill: none; fill-opacity:0; stroke-width: 2; stroke: #ff0000" x="80.2988" y="266.207" width="35.0146" height="31.7725"/>
  </g>
  <g>
    <polygon style="fill: #ffffff" points="155.704,254.162 155.704,234.162 150.704,234.162 160.704,224.162 170.704,234.162 165.704,234.162 165.704,254.162 170.704,254.162 160.704,264.162 150.704,254.162 "/>
    <polygon style="fill: none; fill-opacity:0; stroke-width: 2; stroke: #000000" points="155.704,254.162 155.704,234.162 150.704,234.162 160.704,224.162 170.704,234.162 165.704,234.162 165.704,254.162 170.704,254.162 160.704,264.162 150.704,254.162 "/>
    <polygon style="fill: none; fill-opacity:0; stroke-width: 2; stroke: #000000" points="155.704,254.162 155.704,234.162 150.704,234.162 160.704,224.162 170.704,234.162 165.704,234.162 165.704,254.162 170.704,254.162 160.704,264.162 150.704,254.162 "/>
  </g>
  <g>
    <polygon style="fill: #ffffff" points="116.61,276.91 130.602,276.91 130.602,272.26 144.595,281.561 130.602,290.862 130.602,286.211 116.61,286.211 "/>
    <polygon style="fill: none; fill-opacity:0; stroke-width: 2; stroke: #000000" points="116.61,276.91 130.602,276.91 130.602,272.26 144.595,281.561 130.602,290.862 130.602,286.211 116.61,286.211 "/>
    <polygon style="fill: none; fill-opacity:0; stroke-width: 2; stroke: #000000" points="116.61,276.91 130.602,276.91 130.602,272.26 144.595,281.561 130.602,290.862 130.602,286.211 116.61,286.211 "/>
  </g>
</svg>
